# xmcd
#
# Track frame offsets:
#	150
#	11009
#	41130
#	66686
#	82255
#	92639
#	106228
#	119495
#	132338
#	142604
#	153860
#	165115
#
# Disc length: 2465 seconds
#
# Revision: 1
# Processed by: cddbd v1.4PL0 Copyright (c) Steve Scherf et al.
# Submitted via: audiograbber 1.81.03
#
DISCID=9a099f0c
DTITLE=Eric Clapton - Eric Clapton
DYEAR=1900
DGENRE=Blues
TTITLE0=Boom Boom
TTITLE1=Smokestack Lightning
TTITLE2=Take It Easy Baby
TTITLE3=Louise (Louise Blues) with Jack and Ginger
TTITLE4=Putty In Your Hands
TTITLE5=Jeff's Blues with Jeff Beck
TTITLE6=Still I'm Sad with the Yardbirds
TTITLE7=Freight Loader with Jimmy Page
TTITLE8=Eric's Blues
TTITLE9=For Your Love with the Yardbirds
TTITLE10=Sweet Music
TTITLE11=Wang-Dang Doodle with Jimmy Page
EXTD=
EXTT0=
EXTT1=
EXTT2=
EXTT3=
EXTT4=
EXTT5=
EXTT6=
EXTT7=
EXTT8=
EXTT9=
EXTT10=
EXTT11=
PLAYORDER=
